#!OML:ASF H:\Terrain\Patient Classification 1\Takeo\Monday\TakeoMonday.ASF
:FULLY-SPECIFIED
:DEGREES
1406
root 10.015 17.6877 -0.224887 -8.51967 25.7583 0.236463
lowerback -1.10473 8.24666 7.78118
upperback -1.22644 10.9319 2.07449
thorax 0.36501 5.43448 -1.86419
lowerneck -14.7236 6.61496 3.72629
upperneck -1.90467 8.07424 11.3584
head 1.5867 4.44737 3.57496
rclavicle -5.34731e-014 -2.42517e-014
rhumerus 92.6941 22.9707 -36.5217
rradius 41.9797
rwrist -14.6235
rhand -42.954 47.4619
rfingers 7.12502
rthumb -15.814 18.0879
lclavicle -5.34731e-014 -2.42517e-014
lhumerus 70.8059 4.79443 70.4078
lradius 36.2278
lwrist 71.7536
lhand -23.5961 33.2847
lfingers 7.12502
lthumb 2.86741 63.2451
rfemur 14.1196 -10.9348 18.704
rtibia 13.6329
rfoot -23.1719 -32.2776
rtoes 8.66731
lfemur 0.285015 -14.2853 -22.8174
ltibia 24.197
lfoot -11.8207 2.05658
ltoes -7.37425
1407
root 10.0133 17.6927 -0.217895 -8.47894 25.922 0.285013
lowerback -1.10837 8.27947 7.6082
upperback -1.27282 10.9802 2.09769
thorax 0.287143 5.45625 -1.75474
lowerneck -14.3687 6.50187 3.8522
upperneck -2.45508 8.00307 11.2083
head 1.3507 4.37323 3.45567
rclavicle 4.90998e-014 3.97569e-015
rhumerus 92.8888 22.6274 -36.4221
rradius 41.09
rwrist -14.315
rhand -42.7634 47.5339
rfingers 7.12502
rthumb -15.6305 18.1453
lclavicle 4.90998e-014 3.97569e-015
lhumerus 71.0481 4.47264 70.7523
lradius 35.9598
lwrist 71.3721
lhand -23.5756 33.3875
lfingers 7.12502
lthumb 2.88726 63.3477
rfemur 14.2295 -11.0981 18.6411
rtibia 13.4454
rfoot -22.7969 -32.3455
rtoes 8.00969
lfemur 0.181105 -14.5855 -22.8566
ltibia 24.2827
lfoot -11.7533 1.84961
ltoes -5.1705
1408
root 10.0102 17.6907 -0.212849 -8.42607 26.097 0.372848
lowerback -0.943988 8.36764 7.56369
upperback -1.57732 11.1316 1.90746
thorax -0.0777364 5.51382 -1.96982
lowerneck -12.9193 6.35641 4.50272
upperneck -3.53161 7.96959 10.8266
head 0.77651 4.25157 3.09587
rclavicle -4.51241e-014 -1.70955e-014
rhumerus 92.4197 22.402 -36.8902
rradius 40.1954
rwrist -13.2116
rhand -42.9889 48.0907
rfingers 7.12502
rthumb -15.8477 18.7192
lclavicle -4.51241e-014 -1.70955e-014
lhumerus 71.0183 3.7252 70.5516
lradius 35.7683
lwrist 71.3313
lhand -23.4266 33.0927
lfingers 7.12502
lthumb 3.03116 63.0509
rfemur 14.2077 -11.3246 18.5137
rtibia 13.5403
rfoot -22.5843 -32.293
rtoes 7.12194
lfemur 0.141674 -14.6266 -22.9302
ltibia 24.2787
lfoot -11.6068 1.71633
ltoes -5.35808
1409
root 10.0111 17.6841 -0.210712 -8.2309 26.1751 0.584021
lowerback -1.0152 8.264 7.33039
upperback -1.52009 10.9847 1.86409
thorax -0.0251466 5.44526 -1.88519
lowerneck -13.2549 6.42621 4.36579
upperneck -3.57816 8.06094 10.979
head 0.804084 4.31017 3.19104
rclavicle 8.32908e-014 -1.90833e-014
rhumerus 92.9416 21.8494 -36.5552
rradius 39.6644
rwrist -12.6822
rhand -43.0623 49.0369
rfingers 7.12502
rthumb -15.9184 19.6712
lclavicle 8.32908e-014 -1.90833e-014
lhumerus 71.1758 3.98991 70.3682
lradius 35.8008
lwrist 71.3989
lhand -22.9151 33.07
lfingers 7.12502
lthumb 3.52508 63.0206
rfemur 14.0602 -11.4291 18.2805
rtibia 13.6673
rfoot -22.8979 -32.1138
rtoes 7.23849
lfemur 0.0720585 -14.5042 -23.1357
ltibia 24.2741
lfoot -11.6335 1.79008
ltoes -7.17172
1410
root 10.0138 17.6815 -0.210044 -8.06747 26.2328 0.793743
lowerback -0.940175 8.22487 7.18253
upperback -1.59943 10.9446 1.74419
thorax -0.155495 5.42057 -1.95106
lowerneck -13.9612 6.38818 3.93658
upperneck -2.99253 7.94705 11.5514
head 1.09105 4.3218 3.51567
rclavicle 1.95803e-014 2.38542e-014
rhumerus 93.0268 21.6159 -36.5175
rradius 39.3152
rwrist -12.9351
rhand -42.8738 48.9585
rfingers 7.12502
rthumb -15.7368 19.5783
lclavicle 1.95803e-014 2.38542e-014
lhumerus 71.2637 3.96494 70.0532
lradius 35.7291
lwrist 71.3634
lhand -23.0454 32.9661
lfingers 7.12502
lthumb 3.39927 62.9188
rfemur 13.964 -11.4004 18.0811
rtibia 13.7307
rfoot -23.2217 -32.0485
rtoes 8.20901
lfemur 2.26245e-005 -14.487 -23.3611
ltibia 24.3235
lfoot -11.7534 1.9048
ltoes -7.89843
1411
root 10.0144 17.6816 -0.206107 -8.11471 26.3139 0.633797
lowerback -0.829227 8.22747 7.36056
upperback -1.7237 10.9649 1.7003
thorax -0.303687 5.42175 -2.11412
lowerneck -14.1979 6.22489 3.55596
upperneck -2.74244 7.74183 12.0211
head 1.19753 4.25627 3.75982
rclavicle 1.64991e-014 -1.07344e-014
rhumerus 92.857 21.5952 -36.7309
rradius 39.061
rwrist -13.0409
rhand -42.9207 48.0605
rfingers 7.12502
rthumb -15.782 18.6839
lclavicle 1.64991e-014 -1.07344e-014
lhumerus 71.2705 3.63941 69.4849
lradius 35.7793
lwrist 71.1793
lhand -23.5449 32.738
lfingers 7.12502
lthumb 2.91685 62.6978
rfemur 14.0093 -11.4243 18.2633
rtibia 13.6559
rfoot -23.2163 -32.0865
rtoes 9.11034
lfemur -0.0864216 -14.5424 -23.2113
ltibia 24.4335
lfoot -11.833 1.92392
ltoes -8.17836
1412
root 10.0146 17.6805 -0.199135 -8.17117 26.3961 0.333299
lowerback -1.18222 8.02208 7.42335
upperback -1.10447 10.6225 1.92272
thorax 0.473573 5.28801 -1.82696
lowerneck -16.1917 6.34235 3.43594
upperneck -2.41468 7.71777 11.7186
head 1.66897 4.31284 3.7966
rclavicle -6.21202e-014 -2.66371e-014
rhumerus 94.1157 20.8681 -36.252
rradius 39.0296
rwrist -13.0113
rhand -43.0045 47.5
rfingers 7.12502
rthumb -15.8627 18.1298
lclavicle -6.21202e-014 -2.66371e-014
lhumerus 72.1604 4.59229 69.4672
lradius 35.9719
lwrist 71.0728
lhand -23.1939 33.4221
lfingers 7.12502
lthumb 3.25586 63.377
rfemur 14.1348 -11.5477 18.5732
rtibia 13.3123
rfoot -22.9564 -32.1408
rtoes 8.62135
lfemur -0.243624 -14.5813 -22.8962
ltibia 24.6106
lfoot -11.8977 1.91066
ltoes -9.12259
1413
root 10.0178 17.6808 -0.191899 -8.17801 26.4575 0.0659069
lowerback -1.25863 7.9773 7.69701
upperback -1.36419 10.5679 1.94209
thorax 0.285432 5.24822 -1.96368
lowerneck -15.0156 6.34011 3.71101
upperneck -3.06416 7.84 11.4043
head 1.25403 4.29536 3.55321
rclavicle 2.24627e-014 1.03368e-014
rhumerus 93.9877 21.0743 -36.4377
rradius 38.809
rwrist -13.1585
rhand -42.7048 47.5185
rfingers 7.12502
rthumb -15.574 18.1255
lclavicle 2.24627e-014 1.03368e-014
lhumerus 71.8413 4.46776 69.2187
lradius 36.0918
lwrist 71.2242
lhand -22.9782 33.6743
lfingers 7.12502
lthumb 3.46419 63.6259
rfemur 14.2878 -11.716 18.8227
rtibia 12.8029
rfoot -22.279 -32.3184
rtoes 7.15931
lfemur -0.427657 -14.6369 -22.6163
ltibia 24.8166
lfoot -11.9172 1.89943
ltoes -9.44978
1414
root 10.021 17.6806 -0.182804 -8.2806 26.4513 -0.183932
lowerback -1.02985 8.21852 8.19161
upperback -1.99696 10.9449 1.62446
thorax -0.315511 5.39643 -2.6079
lowerneck -13.1923 6.10319 4.3423
upperneck -3.75395 7.67486 11.4008
head 0.735503 4.12268 3.31516
rclavicle 1.11419e-013 -1.07344e-014
rhumerus 92.7359 21.2683 -37.1303
rradius 38.4247
rwrist -13.5648
rhand -42.1653 47.8286
rfingers 7.12502
rthumb -15.0544 18.396
lclavicle 1.11419e-013 -1.07344e-014
lhumerus 71.3987 3.19293 68.5942
lradius 36.0797
lwrist 71.6257
lhand -22.9096 33.6857
lfingers 7.12502
lthumb 3.5304 63.6362
rfemur 14.5231 -11.7757 19.0492
rtibia 12.3726
rfoot -21.9143 -32.376
rtoes 6.72245
lfemur -0.471143 -14.6561 -22.3837
ltibia 24.9717
lfoot -11.9182 1.92714
ltoes -9.45792
1415
root 10.0208 17.6845 -0.173833 -8.37358 26.3838 -0.383783
lowerback -1.34064 7.96958 8.04207
upperback -1.48049 10.5539 2.11908
thorax 0.234877 5.23536 -1.96265
lowerneck -14.5866 6.35773 3.59789
upperneck -3.29344 7.93938 11.2576
head 1.0985 4.31574 3.4954
rclavicle 1.60022e-014 1.90833e-014
rhumerus 94.0725 21.1321 -36.0141
rradius 38.6712
rwrist -14.4713
rhand -41.5761 47.9603
rfingers 7.12502
rthumb -14.4868 18.486
lclavicle 1.60022e-014 1.90833e-014
lhumerus 71.8737 4.44078 68.9129
lradius 35.7977
lwrist 71.7381
lhand -22.1482 34.1637
lfingers 7.12502
lthumb 4.26564 64.1007
rfemur 14.7074 -11.684 19.27
rtibia 12.0319
rfoot -22.2151 -32.3204
rtoes 7.17072
lfemur -0.477585 -14.6296 -22.1767
ltibia 25.0543
lfoot -12.0193 1.93244
ltoes -9.87657
1416
root 10.0192 17.6893 -0.169152 -8.3892 26.3406 -0.420731
lowerback -1.30914 7.99452 8.05436
upperback -1.55605 10.5954 2.13295
thorax 0.142049 5.25129 -1.96477
lowerneck -14.6833 6.37161 3.43976
upperneck -3.02487 7.94169 11.4087
head 1.19491 4.3365 3.59102
rclavicle -1.13307e-014 -1.19271e-015
rhumerus 93.8388 21.1234 -35.8804
rradius 38.9385
rwrist -14.7087
rhand -41.0751 47.9207
rfingers 7.12502
rthumb -14.004 18.4125
lclavicle -1.13307e-014 -1.19271e-015
lhumerus 71.7921 4.2707 68.4259
lradius 35.7725
lwrist 71.8136
lhand -21.9028 34.2457
lfingers 7.12502
lthumb 4.5026 64.1778
rfemur 14.8123 -11.6652 19.3278
rtibia 11.817
rfoot -22.1805 -32.3807
rtoes 6.98741
lfemur -0.477561 -14.5688 -22.1067
ltibia 25.0663
lfoot -12.0777 1.83372
ltoes -9.94077
1417
root 10.0166 17.6937 -0.166825 -8.2856 26.3665 -0.245448
lowerback -1.26399 7.9687 7.90099
upperback -1.54589 10.5666 2.09583
thorax 0.105481 5.23701 -1.93127
lowerneck -14.7956 6.38227 3.15961
upperneck -3.1291 8.00674 11.5963
head 1.15933 4.37536 3.71197
rclavicle 4.16454e-014 5.36719e-014
rhumerus 93.7883 21.0566 -35.8334
rradius 39.171
rwrist -14.2898
rhand -41.0724 47.5028
rfingers 7.12502
rthumb -14.0013 17.9943
lclavicle 4.16454e-014 5.36719e-014
lhumerus 71.7655 4.21112 68.0415
lradius 36.0101
lwrist 71.6411
lhand -22.3373 33.881
lfingers 7.12502
lthumb 4.08306 63.8217
rfemur 14.7576 -11.6109 19.2092
rtibia 11.8766
rfoot -22.0625 -32.5408
rtoes 6.94506
lfemur -0.49068 -14.4473 -22.2271
ltibia 24.9804
lfoot -11.9611 1.67239
ltoes -9.36092
1418
root 10.0164 17.6968 -0.166155 -8.09071 26.397 -0.0520693
lowerback -1.25875 7.91006 7.78959
upperback -1.51209 10.4875 2.01138
thorax 0.127434 5.1996 -1.96065
lowerneck -14.9201 6.4287 3.19823
upperneck -3.38175 8.08444 11.4955
head 1.09653 4.40402 3.67115
rclavicle 1.02374e-014 1.11319e-014
rhumerus 93.8794 20.8913 -35.5295
rradius 39.7366
rwrist -14.1692
rhand -41.6838 47.2517
rfingers 7.12502
rthumb -14.5905 17.7849
lclavicle 1.02374e-014 1.11319e-014
lhumerus 71.9053 4.37248 67.85
lradius 36.1003
lwrist 71.5301
lhand -22.675 33.6318
lfingers 7.12502
lthumb 3.75698 63.5784
rfemur 14.5657 -11.5173 19.0847
rtibia 12.0245
rfoot -22.2165 -32.6149
rtoes 7.39277
lfemur -0.5736 -14.3827 -22.3754
ltibia 24.8521
lfoot -11.819 1.63782
ltoes -8.89092
1419
root 10.021 17.6929 -0.166123 -7.95286 26.3554 0.136188
lowerback -1.33168 7.84322 7.70778
upperback -1.31399 10.3792 1.93782
thorax 0.363922 5.15757 -1.9685
lowerneck -15.827 6.56427 3.5676
upperneck -2.9093 8.07062 11.028
head 1.44606 4.42657 3.50995
rclavicle 3.16068e-014 -1.11319e-014
rhumerus 94.136 20.47 -34.867
rradius 40.5986
rwrist -14.7273
rhand -41.6858 48.3873
rfingers 7.12502
rthumb -14.5925 18.9206
lclavicle 3.16068e-014 -1.11319e-014
lhumerus 72.4293 4.80622 68.1639
lradius 35.8872
lwrist 71.257
lhand -22.1819 34.261
lfingers 7.12502
lthumb 4.23309 64.1986
rfemur 14.4352 -11.5513 18.875
rtibia 12.1863
rfoot -21.9974 -32.5843
rtoes 6.89795
lfemur -0.530388 -14.3797 -22.5676
ltibia 24.7002
lfoot -11.7575 1.70506
ltoes -8.64284
